HIERARCHY
ROOT mixamorig:Hips
{
	OFFSET -0.000008 104.274872 1.554316
	CHANNELS 6 Xposition Yposition Zposition Xrotation Yrotation Zrotation
	JOINT mixamorig:Spine
	{
		OFFSET -0.000005 10.181595 0.131519
		CHANNELS 6 Xposition Yposition Zposition Xrotation Yrotation Zrotation
		JOINT mixamorig:Spine1
		{
			OFFSET -0.000000 9.893959 -1.470707
			CHANNELS 6 Xposition Yposition Zposition Xrotation Yrotation Zrotation
			JOINT mixamorig:Spine2
			{
				OFFSET -0.000000 9.220757 -1.370641
				CHANNELS 6 Xposition Yposition Zposition Xrotation Yrotation Zrotation
				JOINT mixamorig:Neck
				{
					OFFSET 0.000001 16.740417 -2.049036
					CHANNELS 6 Xposition Yposition Zposition Xrotation Yrotation Zrotation
					JOINT mixamorig:Head
					{
						OFFSET 0.000000 9.617874 1.685006
						CHANNELS 6 Xposition Yposition Zposition Xrotation Yrotation Zrotation
						JOINT mixamorig:HeadTop_End
						{
							OFFSET 0.000002 22.037354 7.501101
							CHANNELS 6 Xposition Yposition Zposition Xrotation Yrotation Zrotation
							End Site
							{
								OFFSET 0.000168 2310.654297 -282.823242
							}
						}
					}
				}
				JOINT mixamorig:RightShoulder
				{
					OFFSET -4.569970 11.014908 -2.160885
					CHANNELS 6 Xposition Yposition Zposition Xrotation Yrotation Zrotation
					JOINT mixamorig:RightArm
					{
						OFFSET -10.592851 -0.524811 -2.232101
						CHANNELS 6 Xposition Yposition Zposition Xrotation Yrotation Zrotation
						JOINT mixamorig:RightForeArm
						{
							OFFSET -27.841511 0.000031 -0.000004
							CHANNELS 6 Xposition Yposition Zposition Xrotation Yrotation Zrotation
							JOINT mixamorig:RightHand
							{
								OFFSET -28.328831 -0.000015 0.000015
								CHANNELS 6 Xposition Yposition Zposition Xrotation Yrotation Zrotation
								JOINT mixamorig:RightHandThumb1
								{
									OFFSET -2.464806 -1.573990 2.681852
									CHANNELS 6 Xposition Yposition Zposition Xrotation Yrotation Zrotation
									JOINT mixamorig:RightHandThumb2
									{
										OFFSET -3.215179 -1.872803 1.924282
										CHANNELS 6 Xposition Yposition Zposition Xrotation Yrotation Zrotation
										JOINT mixamorig:RightHandThumb3
										{
											OFFSET -2.654831 -1.527969 1.512609
											CHANNELS 6 Xposition Yposition Zposition Xrotation Yrotation Zrotation
											JOINT mixamorig:RightHandThumb4
											{
												OFFSET -2.018814 -1.152008 1.108052
												CHANNELS 6 Xposition Yposition Zposition Xrotation Yrotation Zrotation
												End Site
												{
													OFFSET -188.809540 -114.533607 132.431396
												}
											}
										}
									}
								}
								JOINT mixamorig:RightHandIndex1
								{
									OFFSET -9.108284 -0.517868 2.259835
									CHANNELS 6 Xposition Yposition Zposition Xrotation Yrotation Zrotation
									JOINT mixamorig:RightHandIndex2
									{
										OFFSET -3.699989 0.000000 0.001215
										CHANNELS 6 Xposition Yposition Zposition Xrotation Yrotation Zrotation
										JOINT mixamorig:RightHandIndex3
										{
											OFFSET -2.850006 0.000031 -0.000522
											CHANNELS 6 Xposition Yposition Zposition Xrotation Yrotation Zrotation
											JOINT mixamorig:RightHandIndex4
											{
												OFFSET -2.772186 -0.000015 -0.000020
												CHANNELS 6 Xposition Yposition Zposition Xrotation Yrotation Zrotation
												End Site
												{
													OFFSET -277.218445 0.000000 -0.050231
												}
											}
										}
									}
								}
								JOINT mixamorig:RightHandMiddle1
								{
									OFFSET -9.532516 -0.000031 -0.000023
									CHANNELS 6 Xposition Yposition Zposition Xrotation Yrotation Zrotation
									JOINT mixamorig:RightHandMiddle2
									{
										OFFSET -3.700005 -0.000015 0.003713
										CHANNELS 6 Xposition Yposition Zposition Xrotation Yrotation Zrotation
										JOINT mixamorig:RightHandMiddle3
										{
											OFFSET -2.949974 0.000015 -0.002054
											CHANNELS 6 Xposition Yposition Zposition Xrotation Yrotation Zrotation
											JOINT mixamorig:RightHandMiddle4
											{
												OFFSET -2.946640 0.000000 -0.000156
												CHANNELS 6 Xposition Yposition Zposition Xrotation Yrotation Zrotation
												End Site
												{
													OFFSET -294.664337 0.000000 -0.113670
												}
											}
										}
									}
								}
								JOINT mixamorig:RightHandRing1
								{
									OFFSET -9.103600 -0.043076 -1.865134
									CHANNELS 6 Xposition Yposition Zposition Xrotation Yrotation Zrotation
									JOINT mixamorig:RightHandRing2
									{
										OFFSET -3.379288 0.000000 -0.001055
										CHANNELS 6 Xposition Yposition Zposition Xrotation Yrotation Zrotation
										JOINT mixamorig:RightHandRing3
										{
											OFFSET -2.889687 -0.000015 0.000379
											CHANNELS 6 Xposition Yposition Zposition Xrotation Yrotation Zrotation
											JOINT mixamorig:RightHandRing4
											{
												OFFSET -2.638809 -0.000015 0.000941
												CHANNELS 6 Xposition Yposition Zposition Xrotation Yrotation Zrotation
												End Site
												{
													OFFSET -263.880371 0.000000 0.516020
												}
											}
										}
									}
								}
								JOINT mixamorig:RightHandPinky1
								{
									OFFSET -8.076683 -0.486710 -3.806280
									CHANNELS 6 Xposition Yposition Zposition Xrotation Yrotation Zrotation
									JOINT mixamorig:RightHandPinky2
									{
										OFFSET -3.600014 -0.000015 -0.003747
										CHANNELS 6 Xposition Yposition Zposition Xrotation Yrotation Zrotation
										JOINT mixamorig:RightHandPinky3
										{
											OFFSET -2.099983 0.000000 -0.005739
											CHANNELS 6 Xposition Yposition Zposition Xrotation Yrotation Zrotation
											JOINT mixamorig:RightHandPinky4
											{
												OFFSET -2.115768 -0.000031 -0.003680
												CHANNELS 6 Xposition Yposition Zposition Xrotation Yrotation Zrotation
												End Site
												{
													OFFSET -211.577087 0.000000 -0.350686
												}
											}
										}
									}
								}
							}
						}
					}
				}
				JOINT mixamorig:LeftShoulder
				{
					OFFSET 4.570447 11.014725 -2.160855
					CHANNELS 6 Xposition Yposition Zposition Xrotation Yrotation Zrotation
					JOINT mixamorig:LeftArm
					{
						OFFSET 10.592371 -0.524597 -2.232119
						CHANNELS 6 Xposition Yposition Zposition Xrotation Yrotation Zrotation
						JOINT mixamorig:LeftForeArm
						{
							OFFSET 27.841532 -0.000031 0.000026
							CHANNELS 6 Xposition Yposition Zposition Xrotation Yrotation Zrotation
							JOINT mixamorig:LeftHand
							{
								OFFSET 28.328846 -0.000061 0.000022
								CHANNELS 6 Xposition Yposition Zposition Xrotation Yrotation Zrotation
								JOINT mixamorig:LeftHandThumb1
								{
									OFFSET 2.466141 -1.576172 2.681732
									CHANNELS 6 Xposition Yposition Zposition Xrotation Yrotation Zrotation
									JOINT mixamorig:LeftHandThumb2
									{
										OFFSET 3.217812 -1.872070 1.916482
										CHANNELS 6 Xposition Yposition Zposition Xrotation Yrotation Zrotation
										JOINT mixamorig:LeftHandThumb3
										{
											OFFSET 2.656029 -1.528778 1.514513
											CHANNELS 6 Xposition Yposition Zposition Xrotation Yrotation Zrotation
											JOINT mixamorig:LeftHandThumb4
											{
												OFFSET 2.020889 -1.154053 1.115139
												CHANNELS 6 Xposition Yposition Zposition Xrotation Yrotation Zrotation
												End Site
												{
													OFFSET 190.885437 -115.081749 130.048782
												}
											}
										}
									}
								}
								JOINT mixamorig:LeftHandIndex1
								{
									OFFSET 9.109314 -0.518021 2.259871
									CHANNELS 6 Xposition Yposition Zposition Xrotation Yrotation Zrotation
									JOINT mixamorig:LeftHandIndex2
									{
										OFFSET 3.699989 0.000000 -0.000322
										CHANNELS 6 Xposition Yposition Zposition Xrotation Yrotation Zrotation
										JOINT mixamorig:LeftHandIndex3
										{
											OFFSET 2.850006 0.000000 0.000352
											CHANNELS 6 Xposition Yposition Zposition Xrotation Yrotation Zrotation
											JOINT mixamorig:LeftHandIndex4
											{
												OFFSET 2.774864 -0.000031 -0.000027
												CHANNELS 6 Xposition Yposition Zposition Xrotation Yrotation Zrotation
												End Site
												{
													OFFSET 277.486267 0.000000 -0.009857
												}
											}
										}
									}
								}
								JOINT mixamorig:LeftHandMiddle1
								{
									OFFSET 9.533394 0.000061 0.000044
									CHANNELS 6 Xposition Yposition Zposition Xrotation Yrotation Zrotation
									JOINT mixamorig:LeftHandMiddle2
									{
										OFFSET 3.699989 -0.000015 -0.000231
										CHANNELS 6 Xposition Yposition Zposition Xrotation Yrotation Zrotation
										JOINT mixamorig:LeftHandMiddle3
										{
											OFFSET 2.949997 -0.000015 -0.000059
											CHANNELS 6 Xposition Yposition Zposition Xrotation Yrotation Zrotation
											JOINT mixamorig:LeftHandMiddle4
											{
												OFFSET 2.952896 0.000031 0.000063
												CHANNELS 6 Xposition Yposition Zposition Xrotation Yrotation Zrotation
												End Site
												{
													OFFSET 295.289337 0.000000 0.022810
												}
											}
										}
									}
								}
								JOINT mixamorig:LeftHandRing1
								{
									OFFSET 9.104523 -0.042999 -1.865074
									CHANNELS 6 Xposition Yposition Zposition Xrotation Yrotation Zrotation
									JOINT mixamorig:LeftHandRing2
									{
										OFFSET 3.150009 -0.000031 0.000043
										CHANNELS 6 Xposition Yposition Zposition Xrotation Yrotation Zrotation
										JOINT mixamorig:LeftHandRing3
										{
											OFFSET 2.949982 -0.000015 0.000040
											CHANNELS 6 Xposition Yposition Zposition Xrotation Yrotation Zrotation
											JOINT mixamorig:LeftHandRing4
											{
												OFFSET 2.644348 0.000000 0.000057
												CHANNELS 6 Xposition Yposition Zposition Xrotation Yrotation Zrotation
												End Site
												{
													OFFSET 264.434631 0.000000 0.012105
												}
											}
										}
									}
								}
								JOINT mixamorig:LeftHandPinky1
								{
									OFFSET 8.077789 -0.486847 -3.806259
									CHANNELS 6 Xposition Yposition Zposition Xrotation Yrotation Zrotation
									JOINT mixamorig:LeftHandPinky2
									{
										OFFSET 3.599953 0.000031 0.014727
										CHANNELS 6 Xposition Yposition Zposition Xrotation Yrotation Zrotation
										JOINT mixamorig:LeftHandPinky3
										{
											OFFSET 2.100021 0.000015 0.007705
											CHANNELS 6 Xposition Yposition Zposition Xrotation Yrotation Zrotation
											JOINT mixamorig:LeftHandPinky4
											{
												OFFSET 2.125504 0.000031 0.007517
												CHANNELS 6 Xposition Yposition Zposition Xrotation Yrotation Zrotation
												End Site
												{
													OFFSET 212.550781 0.000000 0.625752
												}
											}
										}
									}
								}
							}
						}
					}
				}
			}
		}
	}
	JOINT mixamorig:RightUpLeg
	{
		OFFSET -8.207787 -6.751648 -1.599560
		CHANNELS 6 Xposition Yposition Zposition Xrotation Yrotation Zrotation
		JOINT mixamorig:RightLeg
		{
			OFFSET -0.000002 -44.370117 0.345942
			CHANNELS 6 Xposition Yposition Zposition Xrotation Yrotation Zrotation
			JOINT mixamorig:RightFoot
			{
				OFFSET 0.000003 -44.423679 -3.043532
				CHANNELS 6 Xposition Yposition Zposition Xrotation Yrotation Zrotation
				JOINT mixamorig:RightToeBase
				{
					OFFSET -0.000002 -8.728671 10.710558
					CHANNELS 6 Xposition Yposition Zposition Xrotation Yrotation Zrotation
					JOINT mixamorig:RightToe_End
					{
						OFFSET -0.000001 -0.000679 9.278119
						CHANNELS 6 Xposition Yposition Zposition Xrotation Yrotation Zrotation
						End Site
						{
							OFFSET 0.000000 -0.067690 927.812134
						}
					}
				}
			}
		}
	}
	JOINT mixamorig:LeftUpLeg
	{
		OFFSET 8.207793 -6.751686 -1.599556
		CHANNELS 6 Xposition Yposition Zposition Xrotation Yrotation Zrotation
		JOINT mixamorig:LeftLeg
		{
			OFFSET -0.000004 -44.370014 0.346954
			CHANNELS 6 Xposition Yposition Zposition Xrotation Yrotation Zrotation
			JOINT mixamorig:LeftFoot
			{
				OFFSET -0.000001 -44.423672 -3.044401
				CHANNELS 6 Xposition Yposition Zposition Xrotation Yrotation Zrotation
				JOINT mixamorig:LeftToeBase
				{
					OFFSET -0.000002 -8.728669 10.710558
					CHANNELS 6 Xposition Yposition Zposition Xrotation Yrotation Zrotation
					JOINT mixamorig:LeftToe_End
					{
						OFFSET -0.000003 -0.000679 9.278133
						CHANNELS 6 Xposition Yposition Zposition Xrotation Yrotation Zrotation
						End Site
						{
							OFFSET 0.000000 -0.068021 927.813477
						}
					}
				}
			}
		}
	}
}
MOTION
Frames: 3
Frame Time: 0.033333
0.000006 104.270477 1.554256 0.000010 0.000003 -0.000113 -0.000005 10.181587 0.131522 0.000001 -0.000003 0.000084 -0.000000 9.893967 -1.470711 0.000001 0.000000 -0.000000 -0.000000 9.220802 -1.370642 0.000000 -0.000000 -0.000000 0.000001 16.740433 -2.049030 0.000000 -0.000000 -0.000000 0.000000 9.617859 1.685014 0.000000 0.000000 0.000000 0.000002 22.037384 7.501101 0.000000 -0.000000 0.000000 -4.569968 11.014880 -2.160881 0.000008 0.000001 -0.000038 -10.592776 -0.524858 -2.231747 83.278215 64.410050 -58.496083 -27.841484 -0.000018 0.000593 37.158237 106.196437 -48.231968 -28.328842 -0.000007 0.000014 -0.000322 -0.000043 0.000006 -2.464787 -1.574205 2.682124 95.088555 -173.074849 155.269393 -3.215017 -1.873038 1.924635 240.857605 -27.344153 309.149579 -2.654557 -1.528168 1.513111 196.997545 -35.212364 264.172756 -2.018823 -1.151987 1.108060 -0.000000 -0.000005 0.000000 -9.108112 -0.517892 2.260432 176.645849 15.222142 -155.608238 -3.700003 -0.000009 0.001742 224.206588 5.228939 -347.209743 -2.849971 -0.000188 -0.000256 284.406618 -11.255323 -8.741412 -2.772163 -0.000000 -0.000019 0.000000 0.000000 -0.000000 -9.532272 0.000015 0.000568 183.923634 14.258448 -211.251085 -3.699984 -0.000127 0.004213 233.785381 -6.125580 -372.220912 -2.949889 -0.000222 -0.001830 293.023667 -22.120041 -14.742545 -2.946624 -0.000015 -0.000152 0.000001 0.000000 -0.000000 -9.103315 -0.042986 -1.864540 183.157820 11.085015 -211.468954 -3.379202 -0.000211 -0.000609 237.813909 -15.430193 -27.535911 -2.889556 -0.000234 0.000561 280.912430 -30.052938 -24.945869 -2.638803 -0.000015 0.000948 0.000001 0.000000 0.000000 -8.076457 -0.486741 -3.805700 177.121039 9.591476 -144.939565 -3.599958 -0.000171 -0.003234 224.028948 -8.657605 -382.119851 -2.099861 -0.000278 -0.005481 266.542477 -22.873395 -24.534248 -2.115765 -0.000048 -0.003678 -0.000002 0.000001 -0.000002 4.570446 11.014691 -2.160851 -0.000018 0.000010 -0.000021 10.592529 -0.524529 -2.232398 71.693081 -64.037320 48.624106 27.841776 -0.000067 -0.000136 212.194511 -78.565453 218.865448 28.328833 -0.000015 0.000026 0.000017 -0.000089 -0.000000 2.466173 -1.576129 2.681879 58.196702 132.660592 -117.310589 3.217831 -1.871988 1.916545 84.616406 140.565375 -138.649890 2.656061 -1.528755 1.514632 262.606539 29.633110 39.445343 2.020880 -1.154057 1.115141 0.000001 0.000006 0.000004 9.109171 -0.517783 2.260089 235.754580 -27.710885 -49.992784 3.699757 0.000112 -0.000168 20.234857 -147.195945 62.466055 2.849767 0.000078 0.000463 6.512132 -157.915968 32.502609 2.774882 -0.000028 -0.000025 0.000000 -0.000000 0.000002 9.533243 0.000304 0.000278 236.951502 -25.165158 -44.730786 3.699791 0.000027 -0.000113 186.732208 -30.799519 -155.898945 2.950093 0.000039 -0.000024 167.100496 -17.800378 108.367433 2.952871 -0.000022 0.000071 -0.000001 -0.000000 -0.000002 9.104416 -0.042794 -1.864837 246.013551 -22.393450 -33.896429 3.149658 0.000122 0.000190 186.091960 -18.775638 -144.312212 2.950057 0.000277 0.000056 162.076031 -4.126557 25.747127 2.644315 0.000033 0.000064 -0.000001 0.000000 0.000001 8.077714 -0.486672 -3.806009 258.219181 -17.371234 -21.654797 3.599776 0.000401 0.014901 206.314893 -10.932483 -45.376054 2.100089 0.000362 0.007738 173.298688 -1.006304 -334.756696 2.125511 -0.000016 0.007525 0.000000 0.000001 -0.000000 -8.207786 -6.751667 -1.599560 -0.077001 -0.000003 0.000080 -0.000002 -44.370110 0.345938 0.153719 -0.000000 -0.000000 0.000000 -44.423679 -3.043532 -0.076700 0.000000 -0.000002 -0.000006 -8.728667 10.710559 -0.000009 -0.000000 -0.000000 -0.000001 -0.000679 9.278123 0.000000 -0.000000 -0.000000 8.207792 -6.751710 -1.599556 -0.074518 -0.000003 0.000081 -0.000002 -44.370014 0.346960 0.148822 0.000002 0.000000 -0.000001 -44.423664 -3.044403 -0.074314 0.000000 -0.000002 -0.000004 -8.728671 10.710558 0.000007 -0.000000 -0.000000 0.000000 -0.000680 9.278137 -0.000000 0.000000 -0.000001 
0.000006 104.270477 1.554256 0.000010 0.000003 -0.000113 -0.000005 10.181587 0.131522 0.000001 -0.000003 0.000084 -0.000000 9.893967 -1.470711 0.000001 0.000000 -0.000000 -0.000000 9.220802 -1.370642 0.000000 -0.000000 -0.000000 0.000001 16.740433 -2.049030 0.000000 -0.000000 -0.000000 0.000000 9.617859 1.685014 0.000000 0.000000 0.000000 0.000002 22.037384 7.501101 0.000000 -0.000000 0.000000 -4.569968 11.014880 -2.160881 0.000008 0.000001 -0.000038 -10.592774 -0.524842 -2.231748 83.248087 64.396089 -58.457028 -27.841486 0.000011 0.000590 36.964605 106.212358 -48.005076 -28.328836 0.000022 0.000016 -0.000322 -0.000044 0.000007 -2.464766 -1.574203 2.682127 96.121375 -172.288257 155.397718 -3.215008 -1.873031 1.924634 242.679736 -26.780111 310.636129 -2.654571 -1.528179 1.513088 197.581895 -35.010204 264.995002 -2.018830 -1.151990 1.108066 -0.000003 -0.000003 0.000000 -9.108112 -0.517908 2.260409 176.456899 15.236332 -154.286228 -3.700006 -0.000012 0.001746 222.942497 5.712322 -345.582574 -2.849977 -0.000165 -0.000220 278.562736 -9.543371 -8.219707 -2.772163 -0.000000 -0.000020 -0.000000 0.000000 0.000000 -9.532259 0.000004 0.000554 182.329619 13.808656 -199.827266 -3.699977 -0.000133 0.004215 230.630053 -5.993375 -372.819619 -2.949903 -0.000220 -0.001807 285.509666 -21.736782 -16.616052 -2.946625 -0.000001 -0.000159 -0.000000 -0.000000 0.000000 -9.103313 -0.043041 -1.864546 180.855555 10.557988 -188.884742 -3.379222 -0.000229 -0.000585 233.385269 -14.522604 -28.404575 -2.889574 -0.000255 0.000650 270.938469 -28.364128 -27.866888 -2.638805 -0.000001 0.000943 0.000000 -0.000000 -0.000002 -8.076533 -0.486744 -3.805713 175.095615 8.770074 -119.772585 -3.599974 -0.000161 -0.003232 220.706840 -9.096985 -385.211331 -2.099876 -0.000293 -0.005445 260.280259 -22.292015 -26.609066 -2.115770 -0.000052 -0.003679 0.000005 0.000000 -0.000005 4.570446 11.014691 -2.160851 -0.000018 0.000010 -0.000021 10.592529 -0.524534 -2.232395 71.661341 -63.892540 48.478272 27.841774 -0.000059 -0.000132 212.391371 -78.755407 218.975223 28.328835 -0.000015 0.000017 0.000019 -0.000089 0.000002 2.466170 -1.576152 2.681877 57.415738 132.487857 -116.592326 3.217804 -1.871990 1.916557 86.803173 141.336353 -140.314311 2.656070 -1.528755 1.514623 262.383028 30.329049 39.858126 2.020895 -1.154071 1.115148 0.000002 0.000003 0.000001 9.109161 -0.517795 2.260095 235.023804 -28.472380 -51.939057 3.699749 0.000102 -0.000177 19.009460 -146.298841 57.884733 2.849776 0.000051 0.000468 5.718218 -157.626450 28.341539 2.774889 -0.000011 -0.000011 -0.000001 0.000000 -0.000004 9.533265 0.000281 0.000283 238.994821 -25.933562 -44.290382 3.699781 -0.000004 -0.000115 184.570904 -30.505435 -163.353905 2.950134 0.000054 -0.000036 165.620845 -17.387184 100.973815 2.952867 -0.000047 0.000053 -0.000000 0.000002 -0.000001 9.104427 -0.042805 -1.864837 251.089420 -21.825016 -30.203735 3.149644 0.000179 0.000165 187.531996 -16.673796 -131.617732 2.950040 0.000329 0.000051 163.637044 -2.901734 19.993965 2.644324 0.000012 0.000046 0.000002 0.000001 -0.000003 8.077717 -0.486675 -3.806008 258.987659 -16.118220 -19.878601 3.599840 0.000426 0.014905 206.963543 -7.862694 -33.098185 2.099962 0.000441 0.007750 176.245341 0.736503 -371.298919 2.125497 -0.000030 0.007523 0.000001 0.000000 -0.000000 -8.207786 -6.751667 -1.599560 -0.077001 -0.000003 0.000080 -0.000002 -44.370110 0.345938 0.153719 -0.000000 -0.000000 0.000000 -44.423679 -3.043532 -0.076700 0.000000 -0.000002 -0.000006 -8.728667 10.710559 -0.000009 -0.000000 -0.000000 -0.000001 -0.000679 9.278123 0.000000 -0.000000 -0.000000 8.207792 -6.751710 -1.599556 -0.074518 -0.000003 0.000081 -0.000002 -44.370014 0.346960 0.148822 0.000002 0.000000 -0.000001 -44.423664 -3.044403 -0.074314 0.000000 -0.000002 -0.000004 -8.728671 10.710558 0.000007 -0.000000 -0.000000 0.000000 -0.000680 9.278137 -0.000000 0.000000 -0.000001 
0.000006 104.270477 1.554256 0.000010 0.000003 -0.000113 -0.000005 10.181587 0.131522 0.000001 -0.000003 0.000084 -0.000000 9.893967 -1.470711 0.000001 0.000000 -0.000000 -0.000000 9.220802 -1.370642 0.000000 -0.000000 -0.000000 0.000001 16.740433 -2.049030 0.000000 -0.000000 -0.000000 0.000000 9.617859 1.685014 0.000000 0.000000 0.000000 0.000002 22.037384 7.501101 0.000000 -0.000000 0.000000 -4.569968 11.014880 -2.160881 0.000008 0.000001 -0.000038 -10.592775 -0.524846 -2.231745 83.336497 64.631806 -58.755924 -27.841486 0.000004 0.000595 36.804078 106.396527 -47.948942 -28.328829 -0.000009 0.000030 -0.000317 -0.000044 0.000007 -2.464799 -1.574187 2.682109 96.038422 -176.367956 156.527131 -3.215033 -1.873063 1.924630 243.450181 -24.045275 312.643139 -2.654546 -1.528183 1.513109 195.860428 -33.975127 263.898456 -2.018842 -1.151994 1.108063 -0.000006 -0.000004 0.000005 -9.108107 -0.517878 2.260409 177.338772 16.107987 -161.655893 -3.700017 -0.000028 0.001754 223.306382 6.625330 -343.448440 -2.849997 -0.000194 -0.000213 276.584576 -7.487650 -6.675808 -2.772156 -0.000015 -0.000021 -0.000000 -0.000000 0.000000 -9.532265 0.000016 0.000549 183.542237 14.582290 -207.815103 -3.699991 -0.000127 0.004226 231.047541 -5.071906 -370.783158 -2.949903 -0.000240 -0.001812 283.379631 -20.352963 -16.149518 -2.946627 -0.000029 -0.000147 -0.000001 0.000000 0.000001 -9.103331 -0.043045 -1.864556 181.221475 11.589037 -191.679861 -3.379211 -0.000189 -0.000584 234.746471 -14.283084 -27.171710 -2.889574 -0.000246 0.000660 272.052718 -27.573911 -26.585075 -2.638804 -0.000016 0.000941 -0.000000 -0.000000 0.000001 -8.076532 -0.486737 -3.805715 175.143467 10.000017 -126.627718 -3.599969 -0.000166 -0.003231 220.818554 -8.272262 -382.988678 -2.099866 -0.000289 -0.005450 260.523304 -21.804402 -25.930327 -2.115777 -0.000068 -0.003686 0.000003 -0.000001 -0.000005 4.570446 11.014691 -2.160851 -0.000018 0.000010 -0.000021 10.592535 -0.524532 -2.232397 71.598339 -64.234562 48.713753 27.841774 -0.000042 -0.000131 212.925724 -78.965907 219.465712 28.328829 -0.000013 0.000032 0.000019 -0.000089 0.000001 2.466157 -1.576150 2.681860 63.071299 128.140004 -118.794557 3.217843 -1.871992 1.916540 89.227658 141.019911 -141.714104 2.656053 -1.528749 1.514618 260.027214 30.713718 41.404217 2.020895 -1.154069 1.115147 0.000005 0.000008 0.000001 9.109159 -0.517793 2.260092 234.112056 -27.981806 -52.003267 3.699776 0.000109 -0.000170 18.218681 -145.857693 55.160905 2.849801 0.000047 0.000459 4.106606 -157.787820 20.696091 2.774887 -0.000029 -0.000015 -0.000001 0.000000 0.000000 9.533268 0.000307 0.000288 238.325572 -24.694158 -42.831973 3.699796 0.000012 -0.000125 184.344825 -30.841053 -164.346209 2.950127 0.000086 -0.000026 164.364841 -16.874993 94.444222 2.952881 -0.000016 0.000064 -0.000001 0.000003 -0.000000 9.104437 -0.042776 -1.864832 248.166673 -20.136557 -29.408646 3.149640 0.000124 0.000161 185.230591 -15.646170 -143.213931 2.950032 0.000368 0.000049 163.010401 -1.814279 12.113860 2.644320 0.000019 0.000057 0.000001 -0.000002 0.000002 8.077723 -0.486641 -3.805996 257.866579 -13.836310 -17.500948 3.599861 0.000423 0.014880 205.269642 -5.571156 -25.852551 2.099781 0.000438 0.007757 176.040736 2.143848 -412.131839 2.125504 -0.000003 0.007518 -0.000004 -0.000001 0.000000 -8.207786 -6.751667 -1.599560 -0.077001 -0.000003 0.000080 -0.000002 -44.370110 0.345938 0.153719 -0.000000 -0.000000 0.000000 -44.423679 -3.043532 -0.076700 0.000000 -0.000002 -0.000006 -8.728667 10.710559 -0.000009 -0.000000 -0.000000 -0.000001 -0.000679 9.278123 0.000000 -0.000000 -0.000000 8.207792 -6.751710 -1.599556 -0.074518 -0.000003 0.000081 -0.000002 -44.370014 0.346960 0.148822 0.000002 0.000000 -0.000001 -44.423664 -3.044403 -0.074314 0.000000 -0.000002 -0.000004 -8.728671 10.710558 0.000007 -0.000000 -0.000000 0.000000 -0.000680 9.278137 -0.000000 0.000000 -0.000001 
